<mxfile host="Electron" agent="Mozilla/5.0 (X11; Linux x86_64) AppleWebKit/537.36 (KHTML, like Gecko) draw.io/27.0.9 Chrome/134.0.6998.205 Electron/35.5.1 Safari/537.36" version="27.0.9">
  <diagram name="Страница — 1" id="VJYGo0bvr2aBZDEb_zej">
    <mxGraphModel dx="5851" dy="3156" grid="1" gridSize="10" guides="1" tooltips="1" connect="1" arrows="1" fold="1" page="1" pageScale="1" pageWidth="827" pageHeight="1169" math="0" shadow="0">
      <root>
        <mxCell id="0" />
        <mxCell id="1" parent="0" />
        <object placeholders="1" c4Name="Project razgrom" c4Type="SystemScopeBoundary" c4Application="Автоматизация анализа внешнего периметра и исходного кода" label="&lt;font style=&quot;font-size: 16px&quot;&gt;&lt;b&gt;&lt;div style=&quot;text-align: left&quot;&gt;%c4Name%&lt;/div&gt;&lt;/b&gt;&lt;/font&gt;&lt;div style=&quot;text-align: left&quot;&gt;[%c4Application%]&lt;/div&gt;" id="liLrsa7xYkW0UrCnSuGf-2">
          <mxCell style="rounded=1;fontSize=11;whiteSpace=wrap;html=1;dashed=1;arcSize=20;labelBackgroundColor=none;align=left;verticalAlign=bottom;labelBorderColor=none;spacingTop=0;spacing=10;dashPattern=8 4;metaEdit=1;rotatable=0;perimeter=rectanglePerimeter;noLabel=0;labelPadding=0;allowArrows=0;connectable=0;expand=0;recursiveResize=0;editable=1;pointerEvents=0;absoluteArcSize=1;points=[[0.25,0,0],[0.5,0,0],[0.75,0,0],[1,0.25,0],[1,0.5,0],[1,0.75,0],[0.75,1,0],[0.5,1,0],[0.25,1,0],[0,0.75,0],[0,0.5,0],[0,0.25,0]];" parent="1" vertex="1">
            <mxGeometry x="-2300" y="-770" width="2830" height="1780" as="geometry" />
          </mxCell>
        </object>
        <mxCell id="liLrsa7xYkW0UrCnSuGf-5" style="edgeStyle=orthogonalEdgeStyle;rounded=0;orthogonalLoop=1;jettySize=auto;html=1;entryX=0.433;entryY=0.019;entryDx=0;entryDy=0;entryPerimeter=0;exitX=-0.008;exitY=0.614;exitDx=0;exitDy=0;exitPerimeter=0;" parent="1" target="wjXx7PxpN2QqDerLvjR--19" edge="1">
          <mxGeometry relative="1" as="geometry">
            <mxPoint x="-853.0300000000001" y="-744.04" as="sourcePoint" />
            <mxPoint x="-1457.04" y="-689.8800000000001" as="targetPoint" />
            <Array as="points">
              <mxPoint x="-853" y="-748" />
              <mxPoint x="-1457" y="-748" />
            </Array>
          </mxGeometry>
        </mxCell>
        <mxCell id="liLrsa7xYkW0UrCnSuGf-9" value="Регистрация/Авторизация/Рефреш/Аннулирование" style="edgeLabel;html=1;align=center;verticalAlign=middle;resizable=0;points=[];" parent="liLrsa7xYkW0UrCnSuGf-5" vertex="1" connectable="0">
          <mxGeometry x="0.1584" relative="1" as="geometry">
            <mxPoint as="offset" />
          </mxGeometry>
        </mxCell>
        <mxCell id="liLrsa7xYkW0UrCnSuGf-20" style="edgeStyle=orthogonalEdgeStyle;rounded=0;orthogonalLoop=1;jettySize=auto;html=1;exitX=0.5;exitY=1;exitDx=0;exitDy=0;exitPerimeter=0;" parent="1" source="wjXx7PxpN2QqDerLvjR--19" edge="1">
          <mxGeometry relative="1" as="geometry">
            <mxPoint x="-1440.0434782608695" y="-530" as="targetPoint" />
            <Array as="points" />
            <mxPoint x="-1440.0000000000005" y="-570" as="sourcePoint" />
          </mxGeometry>
        </mxCell>
        <mxCell id="liLrsa7xYkW0UrCnSuGf-21" style="edgeStyle=orthogonalEdgeStyle;rounded=0;orthogonalLoop=1;jettySize=auto;html=1;exitX=1;exitY=0.5;exitDx=0;exitDy=0;exitPerimeter=0;" parent="1" source="wjXx7PxpN2QqDerLvjR--19" target="liLrsa7xYkW0UrCnSuGf-19" edge="1">
          <mxGeometry relative="1" as="geometry">
            <Array as="points">
              <mxPoint x="-1321" y="-630" />
              <mxPoint x="-1240" y="-630" />
              <mxPoint x="-1240" y="-330" />
            </Array>
            <mxPoint x="-1320" y="-630" as="sourcePoint" />
          </mxGeometry>
        </mxCell>
        <mxCell id="XTBOmXso2PyiKkmk_UJ0-1" value="Запись аннулированных&lt;div&gt;jwt токены&lt;/div&gt;" style="edgeLabel;html=1;align=center;verticalAlign=middle;resizable=0;points=[];" vertex="1" connectable="0" parent="liLrsa7xYkW0UrCnSuGf-21">
          <mxGeometry x="0.1227" y="1" relative="1" as="geometry">
            <mxPoint as="offset" />
          </mxGeometry>
        </mxCell>
        <mxCell id="liLrsa7xYkW0UrCnSuGf-7" style="edgeStyle=orthogonalEdgeStyle;rounded=0;orthogonalLoop=1;jettySize=auto;html=1;entryX=0.5;entryY=0;entryDx=0;entryDy=0;entryPerimeter=0;" parent="1" source="liLrsa7xYkW0UrCnSuGf-6" target="liLrsa7xYkW0UrCnSuGf-15" edge="1">
          <mxGeometry relative="1" as="geometry">
            <mxPoint x="-732.9999999999995" y="-839.8074069840786" as="targetPoint" />
            <Array as="points" />
          </mxGeometry>
        </mxCell>
        <object placeholders="1" c4Name="External User" c4Type="^!^" c4Description="" label="&lt;font style=&quot;font-size: 16px&quot;&gt;&lt;b&gt;%c4Name%&lt;/b&gt;&lt;/font&gt;&lt;div&gt;[%c4Type%]&lt;/div&gt;&lt;br&gt;&lt;div&gt;&lt;font style=&quot;font-size: 11px&quot;&gt;&lt;font color=&quot;#cccccc&quot;&gt;%c4Description%&lt;/font&gt;&lt;/div&gt;" id="liLrsa7xYkW0UrCnSuGf-6">
          <mxCell style="html=1;fontSize=11;dashed=0;whiteSpace=wrap;fillColor=#083F75;strokeColor=#06315C;fontColor=#ffffff;shape=mxgraph.c4.person2;align=center;metaEdit=1;points=[[0.5,0,0],[1,0.5,0],[1,0.75,0],[0.75,1,0],[0.5,1,0],[0.25,1,0],[0,0.75,0],[0,0.5,0]];resizable=0;" parent="1" vertex="1">
            <mxGeometry x="-833" y="-1140" width="200" height="180" as="geometry" />
          </mxCell>
        </object>
        <mxCell id="liLrsa7xYkW0UrCnSuGf-24" style="edgeStyle=orthogonalEdgeStyle;rounded=0;orthogonalLoop=1;jettySize=auto;html=1;" parent="1" source="liLrsa7xYkW0UrCnSuGf-15" target="liLrsa7xYkW0UrCnSuGf-23" edge="1">
          <mxGeometry relative="1" as="geometry" />
        </mxCell>
        <object placeholders="1" c4Name="API GATEAWY" c4Type="Container" c4Technology="Kraken D" c4Description="Входная точка, валидация jwt токена, проксирование до конечного бекенда" label="&lt;font style=&quot;font-size: 16px&quot;&gt;&lt;b&gt;%c4Name%&lt;/b&gt;&lt;/font&gt;&lt;div&gt;[%c4Type%: %c4Technology%]&lt;/div&gt;&lt;br&gt;&lt;div&gt;&lt;font style=&quot;font-size: 11px&quot;&gt;&lt;font color=&quot;#E6E6E6&quot;&gt;%c4Description%&lt;/font&gt;&lt;/div&gt;" id="liLrsa7xYkW0UrCnSuGf-15">
          <mxCell style="rounded=1;whiteSpace=wrap;html=1;fontSize=11;labelBackgroundColor=none;fillColor=#23A2D9;fontColor=#ffffff;align=center;arcSize=10;strokeColor=#0E7DAD;metaEdit=1;resizable=0;points=[[0.25,0,0],[0.5,0,0],[0.75,0,0],[1,0.25,0],[1,0.5,0],[1,0.75,0],[0.75,1,0],[0.5,1,0],[0.25,1,0],[0,0.75,0],[0,0.5,0],[0,0.25,0]];" parent="1" vertex="1">
            <mxGeometry x="-853" y="-830" width="240" height="120" as="geometry" />
          </mxCell>
        </object>
        <mxCell id="liLrsa7xYkW0UrCnSuGf-16" style="edgeStyle=orthogonalEdgeStyle;rounded=0;orthogonalLoop=1;jettySize=auto;html=1;exitX=0.5;exitY=0;exitDx=0;exitDy=0;exitPerimeter=0;" parent="1" source="wjXx7PxpN2QqDerLvjR--19" target="liLrsa7xYkW0UrCnSuGf-15" edge="1">
          <mxGeometry relative="1" as="geometry">
            <mxPoint x="-1440.2744827586207" y="-690" as="sourcePoint" />
            <mxPoint x="-853.0000000000002" y="-731.1199999999999" as="targetPoint" />
            <Array as="points">
              <mxPoint x="-1440" y="-720" />
            </Array>
          </mxGeometry>
        </mxCell>
        <mxCell id="liLrsa7xYkW0UrCnSuGf-17" value="JWK" style="edgeLabel;html=1;align=center;verticalAlign=middle;resizable=0;points=[];" parent="liLrsa7xYkW0UrCnSuGf-16" vertex="1" connectable="0">
          <mxGeometry x="-0.2247" relative="1" as="geometry">
            <mxPoint as="offset" />
          </mxGeometry>
        </mxCell>
        <mxCell id="liLrsa7xYkW0UrCnSuGf-31" style="edgeStyle=orthogonalEdgeStyle;rounded=0;orthogonalLoop=1;jettySize=auto;html=1;startArrow=classic;startFill=0;endArrow=none;" parent="1" source="liLrsa7xYkW0UrCnSuGf-19" target="liLrsa7xYkW0UrCnSuGf-23" edge="1">
          <mxGeometry relative="1" as="geometry">
            <Array as="points">
              <mxPoint x="-900" y="-300" />
              <mxPoint x="-900" y="-560" />
            </Array>
          </mxGeometry>
        </mxCell>
        <mxCell id="liLrsa7xYkW0UrCnSuGf-32" value="Проверка что токен не аннулирован" style="edgeLabel;html=1;align=center;verticalAlign=middle;resizable=0;points=[];" parent="liLrsa7xYkW0UrCnSuGf-31" vertex="1" connectable="0">
          <mxGeometry x="-0.0395" y="-1" relative="1" as="geometry">
            <mxPoint x="61" y="-141" as="offset" />
          </mxGeometry>
        </mxCell>
        <object placeholders="1" c4Name="Runtime DataBase" c4Type="Container" c4Technology="Redis" c4Description="Аннулирование access токены" label="&lt;font style=&quot;font-size: 16px&quot;&gt;&lt;b&gt;%c4Name%&lt;/b&gt;&lt;/font&gt;&lt;div&gt;[%c4Type%:&amp;nbsp;%c4Technology%]&lt;/div&gt;&lt;br&gt;&lt;div&gt;&lt;font style=&quot;font-size: 11px&quot;&gt;&lt;font color=&quot;#E6E6E6&quot;&gt;%c4Description%&lt;/font&gt;&lt;/div&gt;" id="liLrsa7xYkW0UrCnSuGf-19">
          <mxCell style="shape=cylinder3;size=15;direction=south;whiteSpace=wrap;html=1;boundedLbl=1;rounded=0;labelBackgroundColor=none;fillColor=#23A2D9;fontSize=12;fontColor=#ffffff;align=center;strokeColor=#0E7DAD;metaEdit=1;points=[[0.5,0,0],[1,0.25,0],[1,0.5,0],[1,0.75,0],[0.5,1,0],[0,0.75,0],[0,0.5,0],[0,0.25,0]];resizable=0;" parent="1" vertex="1">
            <mxGeometry x="-1561" y="-370" width="240" height="120" as="geometry" />
          </mxCell>
        </object>
        <mxCell id="liLrsa7xYkW0UrCnSuGf-30" style="edgeStyle=orthogonalEdgeStyle;rounded=0;orthogonalLoop=1;jettySize=auto;html=1;" parent="1" source="liLrsa7xYkW0UrCnSuGf-23" target="liLrsa7xYkW0UrCnSuGf-28" edge="1">
          <mxGeometry relative="1" as="geometry">
            <Array as="points">
              <mxPoint x="-733" y="-110" />
              <mxPoint x="-1442" y="-110" />
            </Array>
          </mxGeometry>
        </mxCell>
        <mxCell id="XTBOmXso2PyiKkmk_UJ0-2" value="Запуск DAST сканирования" style="edgeLabel;html=1;align=center;verticalAlign=middle;resizable=0;points=[];" vertex="1" connectable="0" parent="liLrsa7xYkW0UrCnSuGf-30">
          <mxGeometry x="-0.7463" relative="1" as="geometry">
            <mxPoint as="offset" />
          </mxGeometry>
        </mxCell>
        <mxCell id="liLrsa7xYkW0UrCnSuGf-55" style="edgeStyle=orthogonalEdgeStyle;rounded=0;orthogonalLoop=1;jettySize=auto;html=1;" parent="1" source="liLrsa7xYkW0UrCnSuGf-23" target="liLrsa7xYkW0UrCnSuGf-54" edge="1">
          <mxGeometry relative="1" as="geometry" />
        </mxCell>
        <object placeholders="1" c4Name="core_service" c4Type="Container" c4Technology="FastApi" c4Description="Главный сервис, через который пользователь управляет проектами, инициирует сканирования и отслеживает их прогресс " label="&lt;font style=&quot;font-size: 16px&quot;&gt;&lt;b&gt;%c4Name%&lt;/b&gt;&lt;/font&gt;&lt;div&gt;[%c4Type%: %c4Technology%]&lt;/div&gt;&lt;br&gt;&lt;div&gt;&lt;font style=&quot;font-size: 11px&quot;&gt;&lt;font color=&quot;#E6E6E6&quot;&gt;%c4Description%&lt;/font&gt;&lt;/div&gt;" id="liLrsa7xYkW0UrCnSuGf-23">
          <mxCell style="rounded=1;whiteSpace=wrap;html=1;fontSize=11;labelBackgroundColor=none;fillColor=#23A2D9;fontColor=#ffffff;align=center;arcSize=10;strokeColor=#0E7DAD;metaEdit=1;resizable=0;points=[[0.25,0,0],[0.5,0,0],[0.75,0,0],[1,0.25,0],[1,0.5,0],[1,0.75,0],[0.75,1,0],[0.5,1,0],[0.25,1,0],[0,0.75,0],[0,0.5,0],[0,0.25,0]];" parent="1" vertex="1">
            <mxGeometry x="-853" y="-620" width="240" height="120" as="geometry" />
          </mxCell>
        </object>
        <mxCell id="liLrsa7xYkW0UrCnSuGf-36" style="edgeStyle=orthogonalEdgeStyle;rounded=0;orthogonalLoop=1;jettySize=auto;html=1;" parent="1" source="liLrsa7xYkW0UrCnSuGf-28" target="liLrsa7xYkW0UrCnSuGf-35" edge="1">
          <mxGeometry relative="1" as="geometry">
            <Array as="points">
              <mxPoint x="-1530" y="130" />
              <mxPoint x="-1530" y="130" />
            </Array>
          </mxGeometry>
        </mxCell>
        <mxCell id="XTBOmXso2PyiKkmk_UJ0-12" value="Запись задач&lt;div&gt;для сервисов на сканирование&lt;/div&gt;" style="edgeLabel;html=1;align=center;verticalAlign=middle;resizable=0;points=[];" vertex="1" connectable="0" parent="liLrsa7xYkW0UrCnSuGf-36">
          <mxGeometry x="0.0596" y="1" relative="1" as="geometry">
            <mxPoint as="offset" />
          </mxGeometry>
        </mxCell>
        <mxCell id="wjXx7PxpN2QqDerLvjR--22" style="edgeStyle=orthogonalEdgeStyle;rounded=0;orthogonalLoop=1;jettySize=auto;html=1;" parent="1" source="liLrsa7xYkW0UrCnSuGf-28" target="wjXx7PxpN2QqDerLvjR--21" edge="1">
          <mxGeometry relative="1" as="geometry" />
        </mxCell>
        <object placeholders="1" c4Name="dast_service" c4Type="Container" c4Technology="FastApi" c4Description="Сервис динамического анализа (сканирование внешнего периметра)" label="&lt;font style=&quot;font-size: 16px&quot;&gt;&lt;b&gt;%c4Name%&lt;/b&gt;&lt;/font&gt;&lt;div&gt;[%c4Type%: %c4Technology%]&lt;/div&gt;&lt;br&gt;&lt;div&gt;&lt;font style=&quot;font-size: 11px&quot;&gt;&lt;font color=&quot;#E6E6E6&quot;&gt;%c4Description%&lt;/font&gt;&lt;/div&gt;" id="liLrsa7xYkW0UrCnSuGf-28">
          <mxCell style="rounded=1;whiteSpace=wrap;html=1;fontSize=11;labelBackgroundColor=none;fillColor=#23A2D9;fontColor=#ffffff;align=center;arcSize=10;strokeColor=#0E7DAD;metaEdit=1;resizable=0;points=[[0.25,0,0],[0.5,0,0],[0.75,0,0],[1,0.25,0],[1,0.5,0],[1,0.75,0],[0.75,1,0],[0.5,1,0],[0.25,1,0],[0,0.75,0],[0,0.5,0],[0,0.25,0]];" parent="1" vertex="1">
            <mxGeometry x="-1562" y="-46.67" width="240" height="120" as="geometry" />
          </mxCell>
        </object>
        <mxCell id="XTBOmXso2PyiKkmk_UJ0-14" style="edgeStyle=orthogonalEdgeStyle;rounded=0;orthogonalLoop=1;jettySize=auto;html=1;" edge="1" parent="1" source="liLrsa7xYkW0UrCnSuGf-35" target="liLrsa7xYkW0UrCnSuGf-28">
          <mxGeometry relative="1" as="geometry">
            <Array as="points">
              <mxPoint x="-1370" y="130" />
              <mxPoint x="-1370" y="130" />
            </Array>
          </mxGeometry>
        </mxCell>
        <mxCell id="XTBOmXso2PyiKkmk_UJ0-15" value="Чтение результатов&lt;div&gt;сканирования от сервисов&lt;/div&gt;" style="edgeLabel;html=1;align=center;verticalAlign=middle;resizable=0;points=[];" vertex="1" connectable="0" parent="XTBOmXso2PyiKkmk_UJ0-14">
          <mxGeometry x="-0.0667" y="-1" relative="1" as="geometry">
            <mxPoint as="offset" />
          </mxGeometry>
        </mxCell>
        <mxCell id="XTBOmXso2PyiKkmk_UJ0-16" style="edgeStyle=orthogonalEdgeStyle;rounded=0;orthogonalLoop=1;jettySize=auto;html=1;" edge="1" parent="1" source="liLrsa7xYkW0UrCnSuGf-35" target="liLrsa7xYkW0UrCnSuGf-53">
          <mxGeometry relative="1" as="geometry">
            <Array as="points">
              <mxPoint x="-1720" y="233" />
              <mxPoint x="-1720" y="233" />
            </Array>
          </mxGeometry>
        </mxCell>
        <mxCell id="XTBOmXso2PyiKkmk_UJ0-18" value="Чтение задачи на поиск поддоменов&lt;div&gt;/&lt;div&gt;Запись результатов&lt;/div&gt;&lt;/div&gt;" style="edgeLabel;html=1;align=center;verticalAlign=middle;resizable=0;points=[];" vertex="1" connectable="0" parent="XTBOmXso2PyiKkmk_UJ0-16">
          <mxGeometry x="-0.0202" y="1" relative="1" as="geometry">
            <mxPoint as="offset" />
          </mxGeometry>
        </mxCell>
        <mxCell id="XTBOmXso2PyiKkmk_UJ0-27" style="edgeStyle=orthogonalEdgeStyle;rounded=0;orthogonalLoop=1;jettySize=auto;html=1;" edge="1" parent="1" source="liLrsa7xYkW0UrCnSuGf-35" target="liLrsa7xYkW0UrCnSuGf-52">
          <mxGeometry relative="1" as="geometry">
            <Array as="points">
              <mxPoint x="-1850" y="233" />
              <mxPoint x="-1850" y="400" />
            </Array>
          </mxGeometry>
        </mxCell>
        <mxCell id="XTBOmXso2PyiKkmk_UJ0-29" style="edgeStyle=orthogonalEdgeStyle;rounded=0;orthogonalLoop=1;jettySize=auto;html=1;" edge="1" parent="1" source="liLrsa7xYkW0UrCnSuGf-35" target="wjXx7PxpN2QqDerLvjR--8">
          <mxGeometry relative="1" as="geometry">
            <Array as="points">
              <mxPoint x="-1682" y="270" />
            </Array>
          </mxGeometry>
        </mxCell>
        <mxCell id="XTBOmXso2PyiKkmk_UJ0-30" value="Чтение задачи на поиск подкаталогов и файлов&lt;div&gt;/&lt;/div&gt;&lt;div&gt;запись результатов&lt;/div&gt;" style="edgeLabel;html=1;align=center;verticalAlign=middle;resizable=0;points=[];" vertex="1" connectable="0" parent="XTBOmXso2PyiKkmk_UJ0-29">
          <mxGeometry x="0.4626" y="1" relative="1" as="geometry">
            <mxPoint as="offset" />
          </mxGeometry>
        </mxCell>
        <mxCell id="XTBOmXso2PyiKkmk_UJ0-31" style="edgeStyle=orthogonalEdgeStyle;rounded=0;orthogonalLoop=1;jettySize=auto;html=1;" edge="1" parent="1" source="liLrsa7xYkW0UrCnSuGf-35" target="wjXx7PxpN2QqDerLvjR--12">
          <mxGeometry relative="1" as="geometry">
            <Array as="points">
              <mxPoint x="-1442" y="380" />
              <mxPoint x="-1442" y="380" />
            </Array>
          </mxGeometry>
        </mxCell>
        <mxCell id="XTBOmXso2PyiKkmk_UJ0-32" value="Чтение задач на поиск открытых портов&amp;nbsp;&lt;div&gt;/&lt;/div&gt;&lt;div&gt;запись результатов&lt;/div&gt;" style="edgeLabel;html=1;align=center;verticalAlign=middle;resizable=0;points=[];" vertex="1" connectable="0" parent="XTBOmXso2PyiKkmk_UJ0-31">
          <mxGeometry x="0.0171" relative="1" as="geometry">
            <mxPoint as="offset" />
          </mxGeometry>
        </mxCell>
        <mxCell id="XTBOmXso2PyiKkmk_UJ0-33" style="edgeStyle=orthogonalEdgeStyle;rounded=0;orthogonalLoop=1;jettySize=auto;html=1;" edge="1" parent="1" source="liLrsa7xYkW0UrCnSuGf-35" target="wjXx7PxpN2QqDerLvjR--11">
          <mxGeometry relative="1" as="geometry">
            <Array as="points">
              <mxPoint x="-1150" y="270" />
            </Array>
          </mxGeometry>
        </mxCell>
        <mxCell id="XTBOmXso2PyiKkmk_UJ0-34" value="Чтение задач на анализ рекон поддоменов&lt;div&gt;/&lt;/div&gt;&lt;div&gt;запись результатов&lt;/div&gt;" style="edgeLabel;html=1;align=center;verticalAlign=middle;resizable=0;points=[];" vertex="1" connectable="0" parent="XTBOmXso2PyiKkmk_UJ0-33">
          <mxGeometry x="0.5743" y="1" relative="1" as="geometry">
            <mxPoint as="offset" />
          </mxGeometry>
        </mxCell>
        <mxCell id="XTBOmXso2PyiKkmk_UJ0-35" style="edgeStyle=orthogonalEdgeStyle;rounded=0;orthogonalLoop=1;jettySize=auto;html=1;" edge="1" parent="1" source="liLrsa7xYkW0UrCnSuGf-35" target="shtA7FutvXdEPw6fK50M-1">
          <mxGeometry relative="1" as="geometry">
            <Array as="points">
              <mxPoint x="-1170" y="233" />
              <mxPoint x="-1170" y="233" />
            </Array>
          </mxGeometry>
        </mxCell>
        <mxCell id="XTBOmXso2PyiKkmk_UJ0-37" value="Чтение задач на поиск уязвимостей&lt;div&gt;/&lt;div&gt;запись резульатов&lt;/div&gt;&lt;/div&gt;" style="edgeLabel;html=1;align=center;verticalAlign=middle;resizable=0;points=[];" vertex="1" connectable="0" parent="XTBOmXso2PyiKkmk_UJ0-35">
          <mxGeometry x="-0.0631" y="-2" relative="1" as="geometry">
            <mxPoint as="offset" />
          </mxGeometry>
        </mxCell>
        <object placeholders="1" c4Name="Kafka " c4Type="Container" c4Technology="Kafka" c4Description="" label="&lt;font style=&quot;font-size: 16px&quot;&gt;&lt;b&gt;%c4Name%&lt;/b&gt;&lt;/font&gt;&lt;div&gt;[%c4Type%:&amp;nbsp;%c4Technology%]&lt;/div&gt;&lt;br&gt;&lt;div&gt;&lt;font style=&quot;font-size: 11px&quot;&gt;&lt;font color=&quot;#E6E6E6&quot;&gt;%c4Description%&lt;/font&gt;&lt;/div&gt;" id="liLrsa7xYkW0UrCnSuGf-35">
          <mxCell style="shape=cylinder3;size=15;direction=south;whiteSpace=wrap;html=1;boundedLbl=1;rounded=0;labelBackgroundColor=none;fillColor=#23A2D9;fontSize=12;fontColor=#ffffff;align=center;strokeColor=#0E7DAD;metaEdit=1;points=[[0.5,0,0],[1,0.25,0],[1,0.5,0],[1,0.75,0],[0.5,1,0],[0,0.75,0],[0,0.5,0],[0,0.25,0]];resizable=0;" parent="1" vertex="1">
            <mxGeometry x="-1562" y="173.32999999999998" width="240" height="120" as="geometry" />
          </mxCell>
        </object>
        <object placeholders="1" c4Name="subfinder_service" c4Type="Container" c4Technology="Subfinder, FastApi" c4Description="Пасивный поиск поддоменов" label="&lt;font style=&quot;font-size: 16px&quot;&gt;&lt;b&gt;%c4Name%&lt;/b&gt;&lt;/font&gt;&lt;div&gt;[%c4Type%: %c4Technology%]&lt;/div&gt;&lt;br&gt;&lt;div&gt;&lt;font style=&quot;font-size: 11px&quot;&gt;&lt;font color=&quot;#E6E6E6&quot;&gt;%c4Description%&lt;/font&gt;&lt;/div&gt;" id="liLrsa7xYkW0UrCnSuGf-52">
          <mxCell style="rounded=1;whiteSpace=wrap;html=1;fontSize=11;labelBackgroundColor=none;fillColor=#23A2D9;fontColor=#ffffff;align=center;arcSize=10;strokeColor=#0E7DAD;metaEdit=1;resizable=0;points=[[0.25,0,0],[0.5,0,0],[0.75,0,0],[1,0.25,0],[1,0.5,0],[1,0.75,0],[0.75,1,0],[0.5,1,0],[0.25,1,0],[0,0.75,0],[0,0.5,0],[0,0.25,0]];" parent="1" vertex="1">
            <mxGeometry x="-2130" y="340.00000000000006" width="240" height="120" as="geometry" />
          </mxCell>
        </object>
        <object placeholders="1" c4Name="Database" c4Type="Container" c4Technology="MySQL" c4Description="Настройки проектов" label="&lt;font style=&quot;font-size: 16px&quot;&gt;&lt;b&gt;%c4Name%&lt;/b&gt;&lt;/font&gt;&lt;div&gt;[%c4Type%:&amp;nbsp;%c4Technology%]&lt;/div&gt;&lt;br&gt;&lt;div&gt;&lt;font style=&quot;font-size: 11px&quot;&gt;&lt;font color=&quot;#E6E6E6&quot;&gt;%c4Description%&lt;/font&gt;&lt;/div&gt;" id="liLrsa7xYkW0UrCnSuGf-54">
          <mxCell style="shape=cylinder3;size=15;whiteSpace=wrap;html=1;boundedLbl=1;rounded=0;labelBackgroundColor=none;fillColor=#23A2D9;fontSize=12;fontColor=#ffffff;align=center;strokeColor=#0E7DAD;metaEdit=1;points=[[0.5,0,0],[1,0.25,0],[1,0.5,0],[1,0.75,0],[0.5,1,0],[0,0.75,0],[0,0.5,0],[0,0.25,0]];resizable=0;" parent="1" vertex="1">
            <mxGeometry x="-430" y="-620" width="240" height="120" as="geometry" />
          </mxCell>
        </object>
        <object placeholders="1" c4Name="Database" c4Type="Container" c4Technology="MySQL" c4Description="Пользователи, роли, аннулированные refresh токены" label="&lt;font style=&quot;font-size: 16px&quot;&gt;&lt;b&gt;%c4Name%&lt;/b&gt;&lt;/font&gt;&lt;div&gt;[%c4Type%:&amp;nbsp;%c4Technology%]&lt;/div&gt;&lt;br&gt;&lt;div&gt;&lt;font style=&quot;font-size: 11px&quot;&gt;&lt;font color=&quot;#E6E6E6&quot;&gt;%c4Description%&lt;/font&gt;&lt;/div&gt;" id="liLrsa7xYkW0UrCnSuGf-57">
          <mxCell style="shape=cylinder3;size=15;whiteSpace=wrap;html=1;boundedLbl=1;rounded=0;labelBackgroundColor=none;fillColor=#23A2D9;fontSize=12;fontColor=#ffffff;align=center;strokeColor=#0E7DAD;metaEdit=1;points=[[0.5,0,0],[1,0.25,0],[1,0.5,0],[1,0.75,0],[0.5,1,0],[0,0.75,0],[0,0.5,0],[0,0.25,0]];resizable=0;" parent="1" vertex="1">
            <mxGeometry x="-1560" y="-530" width="240" height="120" as="geometry" />
          </mxCell>
        </object>
        <mxCell id="liLrsa7xYkW0UrCnSuGf-60" value="&lt;h1 style=&quot;margin-top: 0px;&quot;&gt;Пайплайн SAST&lt;/h1&gt;" style="text;html=1;whiteSpace=wrap;overflow=hidden;rounded=0;align=right;" parent="1" vertex="1">
          <mxGeometry x="-180" y="-745" width="684" height="120" as="geometry" />
        </mxCell>
        <object placeholders="1" c4Name="dnsx_service" c4Type="Container" c4Technology="Dnsx, FastApi" c4Description="Активный поиск поддоменов" label="&lt;font style=&quot;font-size: 16px&quot;&gt;&lt;b&gt;%c4Name%&lt;/b&gt;&lt;/font&gt;&lt;div&gt;[%c4Type%: %c4Technology%]&lt;/div&gt;&lt;br&gt;&lt;div&gt;&lt;font style=&quot;font-size: 11px&quot;&gt;&lt;font color=&quot;#E6E6E6&quot;&gt;%c4Description%&lt;/font&gt;&lt;/div&gt;" id="liLrsa7xYkW0UrCnSuGf-53">
          <mxCell style="rounded=1;whiteSpace=wrap;html=1;fontSize=11;labelBackgroundColor=none;fillColor=#23A2D9;fontColor=#ffffff;align=center;arcSize=10;strokeColor=#0E7DAD;metaEdit=1;resizable=0;points=[[0.25,0,0],[0.5,0,0],[0.75,0,0],[1,0.25,0],[1,0.5,0],[1,0.75,0],[0.75,1,0],[0.5,1,0],[0.25,1,0],[0,0.75,0],[0,0.5,0],[0,0.25,0]];" parent="1" vertex="1">
            <mxGeometry x="-2130" y="173.33000000000004" width="240" height="120" as="geometry" />
          </mxCell>
        </object>
        <object placeholders="1" c4Name="feroxbuster_service" c4Type="Container" c4Technology="Feroxbuster, FastApi" c4Description="Поиск страниц и файлов на поддоменах" label="&lt;font style=&quot;font-size: 16px&quot;&gt;&lt;b&gt;%c4Name%&lt;/b&gt;&lt;/font&gt;&lt;div&gt;[%c4Type%: %c4Technology%]&lt;/div&gt;&lt;br&gt;&lt;div&gt;&lt;font style=&quot;font-size: 11px&quot;&gt;&lt;font color=&quot;#E6E6E6&quot;&gt;%c4Description%&lt;/font&gt;&lt;/div&gt;" id="wjXx7PxpN2QqDerLvjR--8">
          <mxCell style="rounded=1;whiteSpace=wrap;html=1;fontSize=11;labelBackgroundColor=none;fillColor=#23A2D9;fontColor=#ffffff;align=center;arcSize=10;strokeColor=#0E7DAD;metaEdit=1;resizable=0;points=[[0.25,0,0],[0.5,0,0],[0.75,0,0],[1,0.25,0],[1,0.5,0],[1,0.75,0],[0.75,1,0],[0.5,1,0],[0.25,1,0],[0,0.75,0],[0,0.5,0],[0,0.25,0]];" parent="1" vertex="1">
            <mxGeometry x="-1802" y="460" width="240" height="120" as="geometry" />
          </mxCell>
        </object>
        <object placeholders="1" c4Name="httpx_service" c4Type="Container" c4Technology="HTTPX, FastApi" c4Description="Рекон поддоменов" label="&lt;font style=&quot;font-size: 16px&quot;&gt;&lt;b&gt;%c4Name%&lt;/b&gt;&lt;/font&gt;&lt;div&gt;[%c4Type%: %c4Technology%]&lt;/div&gt;&lt;br&gt;&lt;div&gt;&lt;font style=&quot;font-size: 11px&quot;&gt;&lt;font color=&quot;#E6E6E6&quot;&gt;%c4Description%&lt;/font&gt;&lt;/div&gt;" id="wjXx7PxpN2QqDerLvjR--11">
          <mxCell style="rounded=1;whiteSpace=wrap;html=1;fontSize=11;labelBackgroundColor=none;fillColor=#23A2D9;fontColor=#ffffff;align=center;arcSize=10;strokeColor=#0E7DAD;metaEdit=1;resizable=0;points=[[0.25,0,0],[0.5,0,0],[0.75,0,0],[1,0.25,0],[1,0.5,0],[1,0.75,0],[0.75,1,0],[0.5,1,0],[0.25,1,0],[0,0.75,0],[0,0.5,0],[0,0.25,0]];" parent="1" vertex="1">
            <mxGeometry x="-1270" y="460" width="240" height="120" as="geometry" />
          </mxCell>
        </object>
        <object placeholders="1" c4Name="naabu_service" c4Type="Container" c4Technology="Naabu, FastApi" c4Description="Поиск открытых портов на поддоменах" label="&lt;font style=&quot;font-size: 16px&quot;&gt;&lt;b&gt;%c4Name%&lt;/b&gt;&lt;/font&gt;&lt;div&gt;[%c4Type%: %c4Technology%]&lt;/div&gt;&lt;br&gt;&lt;div&gt;&lt;font style=&quot;font-size: 11px&quot;&gt;&lt;font color=&quot;#E6E6E6&quot;&gt;%c4Description%&lt;/font&gt;&lt;/div&gt;" id="wjXx7PxpN2QqDerLvjR--12">
          <mxCell style="rounded=1;whiteSpace=wrap;html=1;fontSize=11;labelBackgroundColor=none;fillColor=#23A2D9;fontColor=#ffffff;align=center;arcSize=10;strokeColor=#0E7DAD;metaEdit=1;resizable=0;points=[[0.25,0,0],[0.5,0,0],[0.75,0,0],[1,0.25,0],[1,0.5,0],[1,0.75,0],[0.75,1,0],[0.5,1,0],[0.25,1,0],[0,0.75,0],[0,0.5,0],[0,0.25,0]];" parent="1" vertex="1">
            <mxGeometry x="-1530" y="460" width="240" height="120" as="geometry" />
          </mxCell>
        </object>
        <object placeholders="1" c4Name="auth_service" c4Type="Container" c4Technology="FastApi" c4Description="Сервис JWT авторизации" label="&lt;font style=&quot;font-size: 16px&quot;&gt;&lt;b&gt;%c4Name%&lt;/b&gt;&lt;/font&gt;&lt;div&gt;[%c4Type%: %c4Technology%]&lt;/div&gt;&lt;br&gt;&lt;div&gt;&lt;font style=&quot;font-size: 11px&quot;&gt;&lt;font color=&quot;#E6E6E6&quot;&gt;%c4Description%&lt;/font&gt;&lt;/div&gt;" id="wjXx7PxpN2QqDerLvjR--19">
          <mxCell style="rounded=1;whiteSpace=wrap;html=1;fontSize=11;labelBackgroundColor=none;fillColor=#23A2D9;fontColor=#ffffff;align=center;arcSize=10;strokeColor=#0E7DAD;metaEdit=1;resizable=0;points=[[0.25,0,0],[0.5,0,0],[0.75,0,0],[1,0.25,0],[1,0.5,0],[1,0.75,0],[0.75,1,0],[0.5,1,0],[0.25,1,0],[0,0.75,0],[0,0.5,0],[0,0.25,0]];" parent="1" vertex="1">
            <mxGeometry x="-1561" y="-680" width="240" height="120" as="geometry" />
          </mxCell>
        </object>
        <object placeholders="1" c4Name="Database" c4Type="Container" c4Technology="MySQL" c4Description="Настройки для сканеров. Результаты сканирования" label="&lt;font style=&quot;font-size: 16px&quot;&gt;&lt;b&gt;%c4Name%&lt;/b&gt;&lt;/font&gt;&lt;div&gt;[%c4Type%:&amp;nbsp;%c4Technology%]&lt;/div&gt;&lt;br&gt;&lt;div&gt;&lt;font style=&quot;font-size: 11px&quot;&gt;&lt;font color=&quot;#E6E6E6&quot;&gt;%c4Description%&lt;/font&gt;&lt;/div&gt;" id="wjXx7PxpN2QqDerLvjR--21">
          <mxCell style="shape=cylinder3;size=15;whiteSpace=wrap;html=1;boundedLbl=1;rounded=0;labelBackgroundColor=none;fillColor=#23A2D9;fontSize=12;fontColor=#ffffff;align=center;strokeColor=#0E7DAD;metaEdit=1;points=[[0.5,0,0],[1,0.25,0],[1,0.5,0],[1,0.75,0],[0.5,1,0],[0,0.75,0],[0,0.5,0],[0,0.25,0]];resizable=0;" parent="1" vertex="1">
            <mxGeometry x="-1969" y="-46.67" width="240" height="120" as="geometry" />
          </mxCell>
        </object>
        <mxCell id="wjXx7PxpN2QqDerLvjR--23" value="" style="shape=image;verticalLabelPosition=bottom;labelBackgroundColor=default;verticalAlign=top;aspect=fixed;imageAspect=0;image=https://www.warco-znaki.ru/uploads/images/bp28-2.png;" parent="1" vertex="1">
          <mxGeometry x="-560" y="-350" width="950" height="1266.67" as="geometry" />
        </mxCell>
        <mxCell id="wjXx7PxpN2QqDerLvjR--24" value="&lt;font style=&quot;font-size: 43px;&quot;&gt;ПРОЕКТИРУЕМ САСТ&lt;/font&gt;" style="rounded=0;whiteSpace=wrap;html=1;" parent="1" vertex="1">
          <mxGeometry x="-380" y="540" width="660" height="340" as="geometry" />
        </mxCell>
        <object placeholders="1" c4Name="nuclei_service" c4Type="Container" c4Technology="Nuclei, FastApi" c4Description="Поиск уязвимостей на внешнем периметре" label="&lt;font style=&quot;font-size: 16px&quot;&gt;&lt;b&gt;%c4Name%&lt;/b&gt;&lt;/font&gt;&lt;div&gt;[%c4Type%: %c4Technology%]&lt;/div&gt;&lt;br&gt;&lt;div&gt;&lt;font style=&quot;font-size: 11px&quot;&gt;&lt;font color=&quot;#E6E6E6&quot;&gt;%c4Description%&lt;/font&gt;&lt;/div&gt;" id="shtA7FutvXdEPw6fK50M-1">
          <mxCell style="rounded=1;whiteSpace=wrap;html=1;fontSize=11;labelBackgroundColor=none;fillColor=#23A2D9;fontColor=#ffffff;align=center;arcSize=10;strokeColor=#0E7DAD;metaEdit=1;resizable=0;points=[[0.25,0,0],[0.5,0,0],[0.75,0,0],[1,0.25,0],[1,0.5,0],[1,0.75,0],[0.75,1,0],[0.5,1,0],[0.25,1,0],[0,0.75,0],[0,0.5,0],[0,0.25,0]];" parent="1" vertex="1">
            <mxGeometry x="-1073" y="190" width="240" height="120" as="geometry" />
          </mxCell>
        </object>
        <mxCell id="XTBOmXso2PyiKkmk_UJ0-11" value="Для более поднобного описания&lt;div&gt;&amp;nbsp;см &quot;Пайплайн DAST&quot;&lt;/div&gt;" style="text;html=1;align=center;verticalAlign=middle;whiteSpace=wrap;rounded=0;" vertex="1" parent="1">
          <mxGeometry x="-1310" y="-26.67" width="210" height="80" as="geometry" />
        </mxCell>
        <mxCell id="XTBOmXso2PyiKkmk_UJ0-39" value="&lt;h1 style=&quot;margin-top: 0px;&quot;&gt;&lt;font face=&quot;Lucida Console&quot; style=&quot;color: rgb(0, 0, 0);&quot;&gt;Пайплайн DAST&lt;/font&gt;&lt;/h1&gt;&lt;div style=&quot;&quot;&gt;&lt;font face=&quot;Lucida Console&quot; style=&quot;font-size: 16px; color: rgb(0, 0, 0);&quot;&gt;&lt;b&gt;1. При старте пайплайна сервисом dast_service в топик sundomains.tasks пишутся основные домены&amp;nbsp;&lt;/b&gt;&lt;/font&gt;&lt;/div&gt;&lt;div style=&quot;&quot;&gt;&lt;font face=&quot;Lucida Console&quot; style=&quot;font-size: 16px; color: rgb(0, 0, 0);&quot;&gt;&lt;b&gt;2. На этот топик подписанны dnsx/subfinder_service, которые использую активные и пассивные методы находят поддомены, и пишут в свои топики результат&lt;/b&gt;&lt;/font&gt;&lt;/div&gt;&lt;div&gt;&lt;div style=&quot;&quot;&gt;&lt;b style=&quot;color: rgb(0, 0, 0); font-size: 16px; font-family: &amp;quot;Lucida Console&amp;quot;; background-color: transparent;&quot;&gt;3. Dast_service подписан на эти топики, считывает найденные поддомены, записывает в свою базу данных, и записывает в топики задачи на поиск:&lt;/b&gt;&lt;/div&gt;&lt;font face=&quot;Lucida Console&quot; style=&quot;font-size: 16px; color: rgb(0, 0, 0);&quot;&gt;&lt;div style=&quot;&quot;&gt;&lt;b style=&quot;background-color: transparent;&quot;&gt;&lt;span style=&quot;white-space: pre;&quot;&gt;&#x9;&lt;/span&gt;1. Открытых портов&lt;/b&gt;&lt;/div&gt;&lt;/font&gt;&lt;/div&gt;&lt;div style=&quot;&quot;&gt;&lt;font face=&quot;Lucida Console&quot; style=&quot;font-size: 16px; color: rgb(0, 0, 0);&quot;&gt;&lt;b&gt;&lt;span style=&quot;white-space: pre;&quot;&gt;&#x9;&lt;/span&gt;2. Страниц и файлов&lt;/b&gt;&lt;/font&gt;&lt;/div&gt;&lt;div style=&quot;&quot;&gt;&lt;font face=&quot;Lucida Console&quot; style=&quot;font-size: 16px; color: rgb(0, 0, 0);&quot;&gt;&lt;b&gt;&lt;span style=&quot;white-space: pre;&quot;&gt;&#x9;&lt;/span&gt;3. Рекон (статус коды, используемое ПО и тд)&lt;/b&gt;&lt;/font&gt;&lt;/div&gt;&lt;div style=&quot;&quot;&gt;&lt;font face=&quot;Lucida Console&quot; style=&quot;font-size: 16px; color: rgb(0, 0, 0);&quot;&gt;&lt;b&gt;&lt;span style=&quot;white-space: pre;&quot;&gt;&#x9;&lt;/span&gt;4. Поиск уязвимостей на домене&amp;nbsp;&lt;br&gt;&lt;/b&gt;&lt;/font&gt;&lt;/div&gt;&lt;div style=&quot;&quot;&gt;&lt;font face=&quot;Lucida Console&quot; style=&quot;font-size: 16px; color: rgb(0, 0, 0);&quot;&gt;&lt;b&gt;4. По исполнению сканирования сервисы пишут результат в соответствующий топик, на который подписан dast_service, который считывает результаты и пишет себе в базу данных&amp;nbsp;&lt;/b&gt;&lt;/font&gt;&lt;/div&gt;" style="text;html=1;whiteSpace=wrap;overflow=hidden;rounded=0;fillColor=#f8cecc;strokeColor=#b85450;" vertex="1" parent="1">
          <mxGeometry x="-2270" y="-730" width="690" height="300" as="geometry" />
        </mxCell>
      </root>
    </mxGraphModel>
  </diagram>
</mxfile>
